<svg xmlns="http://www.w3.org/2000/svg" xmlns:xlink="http://www.w3.org/1999/xlink" width="1000" zoomAndPan="magnify" viewBox="0 0 750 749.999995" height="1000" preserveAspectRatio="xMidYMid meet" version="1.0"><defs><clipPath id="c7880160c0"><path d="M 117 0 L 730.628906 0 L 730.628906 681 L 117 681 Z M 117 0 " clip-rule="nonzero"/></clipPath></defs><g clip-path="url(#c7880160c0)"><path fill="#2B2521" d="M 2925.957031 -40.441406 C 2919.550781 -39.230469 2913.332031 -36.425781 2908.132812 -32.394531 C 2895.835938 -22.859375 2869.3125 13.921875 2858.484375 36.453125 C 2852.140625 49.660156 2847.035156 65.511719 2848.386719 67.816406 C 2848.753906 68.4375 2856.410156 68.949219 2865.398438 68.949219 C 2887.652344 68.949219 2891.878906 66.953125 2913.109375 46.421875 C 2930.160156 29.929688 2945.988281 15.214844 2953.953125 8.453125 C 2959.980469 3.351562 2966.011719 -1.742188 2972.050781 -6.832031 C 2994.21875 -25.519531 2995.75 -27.167969 2995.207031 -31.792969 C 2994.792969 -35.316406 2993.632812 -36.210938 2987.164062 -38.007812 C 2979.699219 -40.085938 2933.742188 -41.910156 2925.957031 -40.441406 M 3333.539062 103.613281 C 3328.050781 104.710938 3328.726562 103.480469 3306.054688 153.585938 C 3297.5625 172.351562 3292.761719 182.789062 3275.457031 220.082031 C 3267.550781 237.125 3259.882812 253.785156 3258.417969 257.113281 C 3256.953125 260.4375 3251.910156 271.25 3247.210938 281.140625 C 3242.515625 291.035156 3237.371094 301.984375 3235.78125 305.476562 C 3234.191406 308.964844 3229.121094 319.816406 3224.511719 329.585938 C 3219.902344 339.351562 3216.132812 347.570312 3216.132812 347.839844 C 3216.132812 348.113281 3211.714844 357.636719 3206.3125 369.007812 C 3200.90625 380.378906 3196.488281 389.859375 3196.488281 390.078125 C 3196.488281 390.296875 3192.15625 399.574219 3186.863281 410.695312 C 3181.570312 421.816406 3175.820312 434.046875 3174.085938 437.871094 C 3172.347656 441.691406 3167.082031 452.914062 3162.382812 462.804688 C 3157.683594 472.699219 3151.605469 485.550781 3148.878906 491.371094 C 3142.703125 504.539062 3132.933594 525.175781 3121.683594 548.800781 C 3095.789062 603.207031 3071.046875 659.28125 3071.046875 663.574219 C 3071.046875 665.085938 3080.601562 665.761719 3114.164062 666.621094 C 3153.308594 667.628906 3157.644531 667.492188 3161.195312 665.167969 C 3163.863281 663.421875 3169.125 654.261719 3177.773438 636.3125 C 3184.742188 621.847656 3190.441406 609.75 3190.441406 609.429688 C 3190.441406 609.105469 3193.921875 601.453125 3198.175781 592.425781 C 3202.175781 583.941406 3206.152344 575.445312 3210.105469 566.9375 C 3213.550781 559.503906 3217.003906 552.074219 3220.464844 544.644531 L 3226.632812 531.421875 L 3445.472656 531.421875 L 3452.691406 547.667969 C 3461.933594 568.457031 3466.164062 577.835938 3472.648438 591.875 C 3475.527344 598.109375 3482.300781 613.074219 3487.699219 625.125 C 3493.097656 637.179688 3499.472656 651.292969 3501.863281 656.484375 L 3506.214844 665.933594 L 3597.347656 665.933594 L 3596.664062 656.484375 C 3595.964844 646.761719 3595.738281 646.183594 3578.503906 610.011719 C 3573.550781 599.621094 3566.910156 585.339844 3563.746094 578.273438 C 3560.582031 571.207031 3553.9375 556.925781 3548.984375 546.535156 C 3544.03125 536.144531 3538.433594 524.242188 3536.550781 520.085938 C 3534.660156 515.929688 3528.785156 503.429688 3523.492188 492.308594 C 3518.203125 481.1875 3513.871094 471.925781 3513.871094 471.726562 C 3513.871094 471.53125 3508.769531 460.714844 3502.535156 447.691406 C 3496.300781 434.667969 3491.199219 423.769531 3491.199219 423.476562 C 3491.199219 423.183594 3487.71875 415.558594 3483.464844 406.527344 C 3479.464844 398.046875 3475.496094 389.550781 3471.546875 381.042969 C 3462.707031 361.859375 3447.308594 328.898438 3439.140625 311.671875 C 3434.453125 301.777344 3429.199219 290.554688 3427.472656 286.734375 C 3425.742188 282.914062 3421.773438 274.339844 3418.65625 267.691406 C 3415.535156 261.042969 3411.570312 252.472656 3409.839844 248.648438 C 3404.703125 237.292969 3384.734375 195.292969 3363.195312 150.5625 C 3355.792969 135.183594 3347.796875 118.382812 3345.425781 113.226562 C 3340.730469 103.027344 3339.886719 102.34375 3333.539062 103.613281 M 1017.980469 108.730469 C 1015.875 111.492188 1011.835938 118.800781 1009.007812 124.976562 C 1006.179688 131.152344 1002.160156 139.945312 1000.070312 144.515625 C 997.074219 151.074219 994.058594 157.621094 991.027344 164.164062 C 988.140625 170.398438 984.058594 179.238281 981.960938 183.8125 C 978.945312 190.363281 975.921875 196.914062 972.890625 203.460938 C 970.003906 209.695312 965.925781 218.535156 963.824219 223.105469 C 960.808594 229.660156 957.785156 236.210938 954.753906 242.753906 C 951.867188 248.988281 947.789062 257.828125 945.691406 262.402344 C 942.144531 270.144531 936.300781 282.664062 924.191406 308.496094 C 906.644531 345.929688 896.394531 367.855469 891.695312 378.019531 C 889.390625 383.007812 883.957031 394.570312 879.625 403.714844 C 872.382812 418.988281 858.132812 449.480469 847.839844 471.722656 C 845.527344 476.710938 840.773438 486.914062 837.269531 494.394531 C 833.765625 501.875 829 512.078125 826.675781 517.0625 C 819.433594 532.609375 807.84375 556.980469 796.855469 579.785156 C 774.394531 626.378906 759.199219 662.925781 761.375 665.101562 C 761.832031 665.558594 782.433594 665.933594 807.160156 665.933594 L 852.109375 665.933594 L 874.917969 619.914062 C 887.460938 594.605469 897.722656 573.570312 897.722656 573.167969 C 897.722656 572.769531 902.109375 563.214844 907.46875 551.933594 L 917.214844 531.421875 L 1135.148438 531.421875 L 1141.121094 544.234375 C 1144.410156 551.28125 1147.097656 557.355469 1147.097656 557.726562 C 1147.097656 558.097656 1149.386719 563.386719 1152.1875 569.472656 C 1155.59375 576.914062 1158.9375 584.378906 1162.21875 591.875 C 1170.140625 610.066406 1188.53125 649.835938 1193.660156 659.886719 L 1196.363281 665.175781 L 1242.007812 665.578125 L 1287.652344 665.976562 L 1287.652344 659.34375 C 1287.652344 651.269531 1285.8125 646.027344 1275.082031 623.519531 C 1270.5 613.90625 1264.386719 600.984375 1261.496094 594.804688 C 1258.609375 588.621094 1252.355469 575.402344 1247.597656 565.425781 C 1229.382812 527.230469 1211.03125 488.40625 1207.230469 480.035156 C 1204.46875 473.980469 1201.6875 467.9375 1198.886719 461.898438 C 1193.058594 449.316406 1187.253906 436.722656 1181.46875 424.117188 C 1177.167969 414.753906 1164.308594 387.238281 1148.625 353.839844 C 1145.113281 346.355469 1140.34375 336.15625 1138.027344 331.167969 C 1135.714844 326.179688 1130.953125 315.980469 1127.449219 308.496094 C 1123.945312 301.015625 1119.1875 290.816406 1116.871094 285.828125 C 1109.121094 269.175781 1101.320312 252.550781 1093.460938 235.953125 C 1089.410156 227.398438 1085.375 218.832031 1081.359375 210.261719 C 1078.636719 204.441406 1072.859375 192.199219 1068.519531 183.054688 C 1064.339844 174.25 1060.179688 165.433594 1056.046875 156.605469 C 1032.367188 105.824219 1031.179688 103.710938 1026.363281 103.710938 C 1022.980469 103.710938 1020.824219 105 1017.980469 108.730469 M 371.019531 106.769531 C 366.863281 107.527344 359.042969 108.882812 353.640625 109.773438 C 292.320312 119.910156 237.082031 149.757812 191.167969 197.558594 C 168.808594 220.839844 154.125 241.191406 142.902344 264.449219 C 129.882812 291.425781 125.90625 303.472656 119.128906 336.457031 C 116.4375 349.574219 116.472656 419.679688 119.183594 438.472656 C 128.0625 500.050781 146.71875 542.625 184.835938 588.289062 C 197.242188 603.152344 220.84375 624.898438 236.285156 635.691406 C 257.753906 650.695312 292.820312 665.117188 322.65625 671.214844 C 386.992188 684.363281 447.472656 684.15625 497.21875 670.625 C 520.144531 664.386719 534.324219 658.910156 557.3125 647.40625 C 583.125 634.496094 608.628906 610.882812 627.992188 581.976562 C 651.570312 546.769531 664.964844 488.117188 664.972656 420.03125 C 664.976562 391.746094 664.128906 388.597656 656.121094 387.273438 C 648.699219 386.046875 522.785156 386.085938 480.082031 387.328125 L 445.832031 388.324219 L 445.832031 460.355469 L 575.050781 461.144531 L 574.816406 466.433594 C 574.546875 472.433594 571.90625 488.277344 568.808594 502.46875 C 564.546875 522.003906 550.949219 544.484375 533.792969 560.371094 C 512.886719 579.722656 459.535156 597.925781 423.742188 597.917969 C 413.6875 597.914062 375.671875 594.257812 369.507812 592.695312 C 367.84375 592.277344 360.363281 590.5 352.882812 588.753906 C 338.34375 585.355469 318.539062 578.171875 305.171875 571.453125 C 283.175781 560.394531 245.71875 520.175781 233.726562 494.738281 C 219.691406 464.960938 211.5 415.5 213.605469 373.226562 C 216.28125 319.410156 237.289062 273.402344 273.808594 241.359375 C 296.339844 221.589844 326.917969 204.210938 348.347656 198.996094 C 384.164062 190.28125 446.914062 190.738281 472.785156 199.902344 C 492.984375 207.058594 504.628906 213.863281 526.6875 231.40625 C 541.261719 242.996094 545.359375 245.089844 556.472656 246.628906 C 564.589844 247.75 569.011719 245.660156 583.363281 233.921875 C 604.410156 216.710938 610.503906 209.136719 610.855469 199.769531 C 611.097656 193.300781 608.664062 189.566406 596.671875 178.019531 C 569.054688 151.425781 533.972656 129.015625 507.121094 120.8125 C 467.96875 108.855469 453.65625 106.601562 412.582031 105.9375 C 393.878906 105.632812 375.175781 106.007812 371.019531 106.769531 M 2395.851562 119.871094 L 2341.0625 120.371094 L 2341.054688 272.621094 C 2341.046875 356.359375 2340.609375 472.480469 2340.078125 530.664062 C 2339.546875 588.851562 2339.613281 642.4375 2340.226562 649.742188 C 2341.828125 668.777344 2339.589844 667.957031 2386.1875 666.605469 L 2423.894531 665.511719 L 2425.824219 661.566406 C 2427.851562 657.425781 2431.363281 537.117188 2431.621094 463.03125 C 2431.722656 432.808594 2432.089844 427.136719 2433.925781 427.136719 C 2437.71875 427.136719 2443.53125 433.527344 2451.792969 446.785156 C 2456.195312 453.851562 2471.371094 474.59375 2485.515625 492.882812 C 2513.324219 528.835938 2567.589844 601.199219 2571.90625 608.089844 C 2579.011719 619.425781 2607.523438 655.503906 2613.617188 660.867188 C 2620.105469 666.578125 2621.382812 667.046875 2635.339844 668.898438 C 2646.851562 670.421875 2653.007812 670.476562 2662.859375 669.152344 C 2669.839844 668.210938 2683.96875 667.441406 2694.25 667.441406 C 2724.636719 667.441406 2726.050781 670.945312 2661.332031 585.832031 C 2650.269531 571.285156 2633.453125 549.179688 2623.957031 536.710938 C 2614.464844 524.242188 2602.074219 507.921875 2596.425781 500.4375 C 2590.773438 492.957031 2574.554688 471.875 2560.378906 453.585938 C 2546.207031 435.300781 2534.585938 419.628906 2534.5625 418.757812 C 2534.539062 417.890625 2540.46875 415.945312 2547.742188 414.433594 C 2568.121094 410.199219 2589.046875 402.496094 2599.71875 395.300781 C 2624.046875 378.894531 2642.972656 352.460938 2650.40625 324.503906 C 2659.667969 289.664062 2658.765625 239.539062 2648.359375 210.5 C 2636.644531 177.820312 2603.003906 143.496094 2567.476562 127.972656 C 2548.035156 119.476562 2530.320312 118.640625 2395.851562 119.871094 M 1420.171875 121.320312 C 1419.605469 121.886719 1419.140625 244.660156 1419.140625 394.148438 L 1419.140625 665.945312 L 1563.097656 665.5625 L 1707.050781 665.175781 L 1707.476562 629.660156 C 1707.710938 610.125 1707.554688 592.71875 1707.132812 590.976562 C 1706.273438 587.46875 1718.101562 587.972656 1563.1875 584.835938 C 1536.429688 584.296875 1513.710938 583.34375 1512.703125 582.722656 C 1511.304688 581.855469 1510.554688 546.503906 1509.527344 432.953125 C 1508.789062 351.203125 1507.703125 247.589844 1507.113281 202.703125 L 1506.042969 121.089844 L 1463.621094 120.691406 C 1440.289062 120.46875 1420.738281 120.75 1420.171875 121.320312 M 1856.933594 121.335938 C 1856.375 121.894531 1855.921875 244.65625 1855.921875 394.140625 L 1855.921875 665.933594 L 2161.265625 665.933594 L 2160.859375 627.015625 L 2160.457031 588.097656 L 2054.285156 587.710938 L 1948.113281 587.320312 L 1948.113281 409.003906 L 2161.210938 409.003906 L 2161.210938 371.402344 C 2161.210938 338.222656 2160.917969 333.5625 2158.707031 331.730469 C 2156.621094 330.007812 2138.703125 329.746094 2052.140625 330.199219 L 1948.082031 330.742188 L 1948.476562 262.945312 L 1948.867188 195.148438 L 2055.066406 194.757812 L 2161.265625 194.371094 L 2160.863281 157.730469 L 2160.457031 121.089844 L 2009.203125 120.707031 C 1926.011719 120.492188 1857.492188 120.777344 1856.933594 121.335938 M 2851.898438 393.132812 L 2851.898438 665.980469 L 2895.351562 665.578125 L 2938.800781 665.175781 L 2938.800781 121.089844 L 2895.351562 120.691406 L 2851.898438 120.289062 Z M 2433.632812 195.390625 C 2432.15625 195.988281 2431.746094 213.109375 2431.746094 273.863281 L 2431.746094 351.570312 L 2462.347656 351.570312 C 2506.046875 351.570312 2527.0625 347.003906 2545.089844 333.589844 C 2552.738281 327.898438 2555.113281 324.699219 2559.226562 314.542969 C 2565.707031 298.546875 2566.003906 260.335938 2559.824219 237.210938 C 2557.132812 227.136719 2543.105469 212.976562 2529.695312 206.792969 C 2513.023438 199.101562 2505.882812 197.238281 2487.664062 195.816406 C 2469.179688 194.375 2436.78125 194.121094 2433.632812 195.390625 M 1021.984375 272.003906 C 1021.269531 272.957031 1019.789062 276.796875 1018.6875 280.539062 C 1013.503906 298.175781 1001.390625 330.808594 994.011719 347.039062 C 967.144531 406.105469 962.789062 415.875 959.972656 423.359375 C 956.710938 432.035156 952.214844 450.230469 953.015625 451.527344 C 953.460938 452.246094 985.765625 452.832031 1024.804688 452.832031 L 1095.785156 452.832031 L 1097.492188 448.675781 C 1100.554688 441.21875 1099.417969 434.382812 1092.773438 420.335938 C 1076.480469 385.875 1073.816406 380.15625 1067.769531 366.683594 C 1059.816406 348.960938 1047.902344 319.496094 1040.574219 299.429688 C 1037.542969 291.117188 1033.796875 281.519531 1032.257812 278.101562 C 1029.410156 271.789062 1024.375 268.800781 1021.984375 272.003906 M 3329.820312 283.183594 C 3321.492188 305.589844 3313.339844 326.546875 3310.398438 333.101562 C 3308.425781 337.488281 3306.816406 341.355469 3306.816406 341.6875 C 3306.816406 342.328125 3301.292969 354.480469 3291.335938 375.753906 C 3269.773438 421.828125 3268.972656 423.738281 3265.25 438.171875 C 3261.015625 454.566406 3252.617188 452.832031 3336.199219 452.832031 C 3376.464844 452.832031 3409.71875 452.324219 3410.09375 451.699219 C 3411.695312 449.050781 3407.679688 432.554688 3402.945312 422.324219 C 3398.894531 413.59375 3394.824219 404.871094 3390.742188 396.15625 C 3381.84375 377.160156 3363.910156 333.335938 3353.394531 304.878906 C 3346.003906 284.878906 3344.960938 282.960938 3340.492188 281.074219 C 3333.488281 278.125 3331.558594 278.503906 3329.820312 283.183594 " fill-opacity="1" fill-rule="evenodd"/></g></svg>
